<?xml version="1.0" encoding="UTF-8" standalone="no"?>
<!-- Created with Inkscape (http://www.inkscape.org/) -->

<svg
   xmlns:dc="http://purl.org/dc/elements/1.1/"
   xmlns:cc="http://creativecommons.org/ns#"
   xmlns:rdf="http://www.w3.org/1999/02/22-rdf-syntax-ns#"
   xmlns:svg="http://www.w3.org/2000/svg"
   xmlns="http://www.w3.org/2000/svg"
   xmlns:sodipodi="http://sodipodi.sourceforge.net/DTD/sodipodi-0.dtd"
   xmlns:inkscape="http://www.inkscape.org/namespaces/inkscape"
   width="37.224159mm"
   height="38.747021mm"
   viewBox="0 0 37.224159 38.747021"
   version="1.1"
   id="svg4991"
   inkscape:version="0.92.4 (5da689c313, 2019-01-14)"
   sodipodi:docname="rock_m.svg">
  <defs
     id="defs4985">
    <clipPath
       clipPathUnits="userSpaceOnUse"
       id="clipPath3350">
      <path
         inkscape:connector-curvature="0"
         id="path3352"
         d="m -50.574848,41.961702 3.446463,-19.556676 14.988109,-4.969319 9.377587,2.64496 1.202255,5.850973 5.20977,6.892928 c 0,0 -5.370071,16.591113 -5.690672,16.671264 -0.320601,0.08015 -17.072018,3.686916 -17.072018,3.686916 l -10.018787,-8.816536 z"
         style="fill:#49405d;fill-opacity:1;stroke:#3d7454;stroke-width:3;stroke-linecap:butt;stroke-linejoin:round;stroke-miterlimit:4;stroke-dasharray:none;stroke-opacity:1;paint-order:stroke fill markers" />
    </clipPath>
    <clipPath
       clipPathUnits="userSpaceOnUse"
       id="clipPath3370">
      <path
         inkscape:connector-curvature="0"
         id="path3372"
         d="m -50.574848,41.961702 3.446463,-19.556676 14.988109,-4.969319 9.377587,2.64496 1.202255,5.850973 5.20977,6.892928 c 0,0 -5.370071,16.591113 -5.690672,16.671264 -0.320601,0.08015 -17.072018,3.686916 -17.072018,3.686916 l -10.018787,-8.816536 z"
         style="fill:#49405d;fill-opacity:1;stroke:#3d7454;stroke-width:3;stroke-linecap:butt;stroke-linejoin:round;stroke-miterlimit:4;stroke-dasharray:none;stroke-opacity:1;paint-order:stroke fill markers" />
    </clipPath>
    <clipPath
       clipPathUnits="userSpaceOnUse"
       id="clipPath3366">
      <path
         inkscape:connector-curvature="0"
         id="path3368"
         d="m -50.574848,41.961702 3.446463,-19.556676 14.988109,-4.969319 9.377587,2.64496 1.202255,5.850973 5.20977,6.892928 c 0,0 -5.370071,16.591113 -5.690672,16.671264 -0.320601,0.08015 -17.072018,3.686916 -17.072018,3.686916 l -10.018787,-8.816536 z"
         style="fill:#49405d;fill-opacity:1;stroke:#3d7454;stroke-width:3;stroke-linecap:butt;stroke-linejoin:round;stroke-miterlimit:4;stroke-dasharray:none;stroke-opacity:1;paint-order:stroke fill markers" />
    </clipPath>
    <clipPath
       clipPathUnits="userSpaceOnUse"
       id="clipPath3362">
      <path
         inkscape:connector-curvature="0"
         id="path3364"
         d="m -50.574848,41.961702 3.446463,-19.556676 14.988109,-4.969319 9.377587,2.64496 1.202255,5.850973 5.20977,6.892928 c 0,0 -5.370071,16.591113 -5.690672,16.671264 -0.320601,0.08015 -17.072018,3.686916 -17.072018,3.686916 l -10.018787,-8.816536 z"
         style="fill:#49405d;fill-opacity:1;stroke:#3d7454;stroke-width:3;stroke-linecap:butt;stroke-linejoin:round;stroke-miterlimit:4;stroke-dasharray:none;stroke-opacity:1;paint-order:stroke fill markers" />
    </clipPath>
  </defs>
  <sodipodi:namedview
     id="base"
     pagecolor="#ffffff"
     bordercolor="#666666"
     borderopacity="1.0"
     inkscape:pageopacity="0.0"
     inkscape:pageshadow="2"
     inkscape:zoom="0.35"
     inkscape:cx="-451.0837"
     inkscape:cy="124.65129"
     inkscape:document-units="mm"
     inkscape:current-layer="layer1"
     showgrid="false"
     inkscape:window-width="1920"
     inkscape:window-height="1027"
     inkscape:window-x="-8"
     inkscape:window-y="-8"
     inkscape:window-maximized="1"
     fit-margin-top="0"
     fit-margin-left="0"
     fit-margin-right="0"
     fit-margin-bottom="0" />
  <metadata
     id="metadata4988">
    <rdf:RDF>
      <cc:Work
         rdf:about="">
        <dc:format>image/svg+xml</dc:format>
        <dc:type
           rdf:resource="http://purl.org/dc/dcmitype/StillImage" />
        <dc:title></dc:title>
      </cc:Work>
    </rdf:RDF>
  </metadata>
  <g
     inkscape:label="Layer 1"
     inkscape:groupmode="layer"
     id="layer1"
     transform="translate(-102.3403,-143.06697)">
    <g
       transform="translate(32.215538,42.077819)"
       id="g4983">
      <path
         inkscape:export-ydpi="200"
         inkscape:export-xdpi="200"
         inkscape:connector-curvature="0"
         id="path3331"
         d="m 71.624756,127.01514 3.446463,-19.55668 14.988108,-4.96932 9.377588,2.64496 1.202255,5.85098 5.20977,6.89292 c 0,0 -5.37007,16.59112 -5.69067,16.67127 -0.320604,0.0802 -17.072021,3.68691 -17.072021,3.68691 l -10.018786,-8.81653 z"
         style="fill:#49405d;fill-opacity:1;stroke:#3d7454;stroke-width:3;stroke-linecap:butt;stroke-linejoin:round;stroke-miterlimit:4;stroke-dasharray:none;stroke-opacity:1;paint-order:stroke fill markers" />
      <path
         inkscape:export-ydpi="200"
         inkscape:export-xdpi="200"
         transform="translate(122.1996,85.053435)"
         clip-path="url(#clipPath3350)"
         inkscape:connector-curvature="0"
         id="path3331-1"
         d="m -45.805899,35.604312 2.789626,-15.829508 12.131631,-4.022251 7.590377,2.140875 0.973126,4.735878 4.216878,5.579253 c 0,0 -4.346627,13.429131 -4.606127,13.494005 -0.2595,0.06488 -13.818382,2.984253 -13.818382,2.984253 l -8.109377,-7.136255 z"
         style="fill:#525b6a;fill-opacity:1;stroke:none;stroke-width:2.42825103;stroke-linecap:butt;stroke-linejoin:round;stroke-miterlimit:4;stroke-dasharray:none;stroke-opacity:1;paint-order:stroke fill markers" />
      <path
         inkscape:export-ydpi="200"
         inkscape:export-xdpi="200"
         transform="translate(122.1996,85.053435)"
         sodipodi:nodetypes="cccccc"
         clip-path="url(#clipPath3370)"
         inkscape:connector-curvature="0"
         id="path3354"
         d="m -22.361937,19.840216 -5.450221,3.326239 -3.125862,-0.280527 -1.122106,-5.770822 9.056986,-1.041954 z"
         style="fill:#afa88b;fill-opacity:1;stroke:none;stroke-width:0.26458332px;stroke-linecap:butt;stroke-linejoin:miter;stroke-opacity:1" />
      <path
         inkscape:export-ydpi="200"
         inkscape:export-xdpi="200"
         transform="translate(122.1996,85.053435)"
         clip-path="url(#clipPath3366)"
         inkscape:connector-curvature="0"
         id="path3356"
         d="m -34.464635,17.034955 0.881655,6.892927 -14.907958,12.663749 -1.202256,-18.11397 z"
         style="fill:#afa88b;fill-opacity:1;stroke:none;stroke-width:0.26458332px;stroke-linecap:butt;stroke-linejoin:miter;stroke-opacity:1" />
      <path
         inkscape:export-ydpi="200"
         inkscape:export-xdpi="200"
         transform="translate(122.1996,85.053435)"
         clip-path="url(#clipPath3362)"
         inkscape:connector-curvature="0"
         id="path3358"
         d="m -26.609905,34.748173 c 0.320603,-0.561051 5.450223,-8.495932 5.450223,-8.495932 l 10.659991,4.889169 z"
         style="fill:#afa88b;fill-opacity:1;stroke:none;stroke-width:0.26458332px;stroke-linecap:butt;stroke-linejoin:miter;stroke-opacity:1" />
      <path
         inkscape:export-ydpi="200"
         inkscape:export-xdpi="200"
         sodipodi:nodetypes="ccccccc"
         inkscape:connector-curvature="0"
         id="path3374"
         d="m 80.361139,118.59936 10.179089,-9.45774 4.488419,-0.0802 0.154604,7.37216 -5.364375,8.8182 -8.415781,-3.36631 z"
         style="fill:#afa88b;fill-opacity:1;stroke:none;stroke-width:0.26458332px;stroke-linecap:butt;stroke-linejoin:miter;stroke-opacity:1" />
      <path
         inkscape:export-ydpi="200"
         inkscape:export-xdpi="200"
         inkscape:connector-curvature="0"
         id="path3384"
         d="m 90.985677,125.63262 3.661393,-4.3013 5.258914,-1.14562 -2.249432,6.03022 -6.002851,-0.0107 -0.383308,-0.4118 z"
         style="fill:#807b6e;fill-opacity:1;stroke:none;stroke-width:0.21588901px;stroke-linecap:butt;stroke-linejoin:miter;stroke-opacity:1" />
      <path
         inkscape:export-ydpi="200"
         inkscape:export-xdpi="200"
         inkscape:connector-curvature="0"
         id="path3401"
         d="m 76.353625,129.41965 -1.763308,-6.25173 8.015031,0.88166 4.488418,3.60676 -8.095181,2.80526 z"
         style="fill:#807b6e;fill-opacity:1;stroke:none;stroke-width:0.26458332px;stroke-linecap:butt;stroke-linejoin:miter;stroke-opacity:1" />
    </g>
  </g>
</svg>
