<?xml version="1.0" encoding="UTF-8" standalone="no"?>
<!-- Created with Inkscape (http://www.inkscape.org/) -->

<svg
   xmlns:dc="http://purl.org/dc/elements/1.1/"
   xmlns:cc="http://creativecommons.org/ns#"
   xmlns:rdf="http://www.w3.org/1999/02/22-rdf-syntax-ns#"
   xmlns:svg="http://www.w3.org/2000/svg"
   xmlns="http://www.w3.org/2000/svg"
   xmlns:sodipodi="http://sodipodi.sourceforge.net/DTD/sodipodi-0.dtd"
   xmlns:inkscape="http://www.inkscape.org/namespaces/inkscape"
   width="37.224159mm"
   height="38.747021mm"
   viewBox="0 0 37.224159 38.747021"
   version="1.1"
   id="svg5464"
   inkscape:version="0.92.4 (5da689c313, 2019-01-14)"
   sodipodi:docname="copper_m.svg">
  <defs
     id="defs5458">
    <clipPath
       clipPathUnits="userSpaceOnUse"
       id="clipPath3362">
      <path
         inkscape:connector-curvature="0"
         id="path3364"
         d="m -50.574848,41.961702 3.446463,-19.556676 14.988109,-4.969319 9.377587,2.64496 1.202255,5.850973 5.20977,6.892928 c 0,0 -5.370071,16.591113 -5.690672,16.671264 -0.320601,0.08015 -17.072018,3.686916 -17.072018,3.686916 l -10.018787,-8.816536 z"
         style="fill:#49405d;fill-opacity:1;stroke:#3d7454;stroke-width:3;stroke-linecap:butt;stroke-linejoin:round;stroke-miterlimit:4;stroke-dasharray:none;stroke-opacity:1;paint-order:stroke fill markers" />
    </clipPath>
    <clipPath
       clipPathUnits="userSpaceOnUse"
       id="clipPath3366">
      <path
         inkscape:connector-curvature="0"
         id="path3368"
         d="m -50.574848,41.961702 3.446463,-19.556676 14.988109,-4.969319 9.377587,2.64496 1.202255,5.850973 5.20977,6.892928 c 0,0 -5.370071,16.591113 -5.690672,16.671264 -0.320601,0.08015 -17.072018,3.686916 -17.072018,3.686916 l -10.018787,-8.816536 z"
         style="fill:#49405d;fill-opacity:1;stroke:#3d7454;stroke-width:3;stroke-linecap:butt;stroke-linejoin:round;stroke-miterlimit:4;stroke-dasharray:none;stroke-opacity:1;paint-order:stroke fill markers" />
    </clipPath>
    <clipPath
       clipPathUnits="userSpaceOnUse"
       id="clipPath3370">
      <path
         inkscape:connector-curvature="0"
         id="path3372"
         d="m -50.574848,41.961702 3.446463,-19.556676 14.988109,-4.969319 9.377587,2.64496 1.202255,5.850973 5.20977,6.892928 c 0,0 -5.370071,16.591113 -5.690672,16.671264 -0.320601,0.08015 -17.072018,3.686916 -17.072018,3.686916 l -10.018787,-8.816536 z"
         style="fill:#49405d;fill-opacity:1;stroke:#3d7454;stroke-width:3;stroke-linecap:butt;stroke-linejoin:round;stroke-miterlimit:4;stroke-dasharray:none;stroke-opacity:1;paint-order:stroke fill markers" />
    </clipPath>
    <clipPath
       clipPathUnits="userSpaceOnUse"
       id="clipPath3350">
      <path
         inkscape:connector-curvature="0"
         id="path3352"
         d="m -50.574848,41.961702 3.446463,-19.556676 14.988109,-4.969319 9.377587,2.64496 1.202255,5.850973 5.20977,6.892928 c 0,0 -5.370071,16.591113 -5.690672,16.671264 -0.320601,0.08015 -17.072018,3.686916 -17.072018,3.686916 l -10.018787,-8.816536 z"
         style="fill:#49405d;fill-opacity:1;stroke:#3d7454;stroke-width:3;stroke-linecap:butt;stroke-linejoin:round;stroke-miterlimit:4;stroke-dasharray:none;stroke-opacity:1;paint-order:stroke fill markers" />
    </clipPath>
  </defs>
  <sodipodi:namedview
     id="base"
     pagecolor="#ffffff"
     bordercolor="#666666"
     borderopacity="1.0"
     inkscape:pageopacity="0.0"
     inkscape:pageshadow="2"
     inkscape:zoom="0.35"
     inkscape:cx="-319.65513"
     inkscape:cy="81.794132"
     inkscape:document-units="mm"
     inkscape:current-layer="layer1"
     showgrid="false"
     inkscape:window-width="1920"
     inkscape:window-height="1027"
     inkscape:window-x="-8"
     inkscape:window-y="-8"
     inkscape:window-maximized="1"
     fit-margin-top="0"
     fit-margin-left="0"
     fit-margin-right="0"
     fit-margin-bottom="0" />
  <metadata
     id="metadata5461">
    <rdf:RDF>
      <cc:Work
         rdf:about="">
        <dc:format>image/svg+xml</dc:format>
        <dc:type
           rdf:resource="http://purl.org/dc/dcmitype/StillImage" />
        <dc:title></dc:title>
      </cc:Work>
    </rdf:RDF>
  </metadata>
  <g
     inkscape:label="Layer 1"
     inkscape:groupmode="layer"
     id="layer1"
     transform="translate(-67.566492,-131.72768)">
    <path
       inkscape:connector-curvature="0"
       id="path1739"
       d="m 69.066485,157.75366 3.446463,-19.55668 14.988109,-4.96931 9.377589,2.64496 1.202251,5.85097 5.209773,6.89293 c 0,0 -5.370071,16.59111 -5.690672,16.67126 -0.320601,0.0801 -17.072019,3.68692 -17.072019,3.68692 l -10.018787,-8.81654 z"
       style="fill:#553b46;fill-opacity:1;stroke:#3d7454;stroke-width:3;stroke-linecap:butt;stroke-linejoin:round;stroke-miterlimit:4;stroke-dasharray:none;stroke-opacity:1;paint-order:stroke fill markers"
       inkscape:export-xdpi="200"
       inkscape:export-ydpi="200" />
    <path
       transform="translate(119.64133,115.79196)"
       clip-path="url(#clipPath3350)"
       inkscape:connector-curvature="0"
       id="path1741"
       d="m -48.490938,36.591631 5.474665,-16.816827 12.131631,-4.022251 7.590377,2.140875 0.973126,4.735878 4.216878,5.579253 c 0,0 -4.346627,13.429131 -4.606127,13.494005 -0.2595,0.06488 -13.818382,2.984253 -13.818382,2.984253 L -47.609287,38.11449 Z"
       style="fill:#73494b;fill-opacity:1;stroke:none;stroke-width:2.42825103;stroke-linecap:butt;stroke-linejoin:round;stroke-miterlimit:4;stroke-dasharray:none;stroke-opacity:1;paint-order:stroke fill markers"
       sodipodi:nodetypes="cccccccccc"
       inkscape:export-xdpi="200"
       inkscape:export-ydpi="200" />
    <path
       transform="translate(119.64133,115.79196)"
       sodipodi:nodetypes="cccccc"
       clip-path="url(#clipPath3370)"
       inkscape:connector-curvature="0"
       id="path1743"
       d="m -22.361937,19.840216 -5.450221,3.326239 -3.125862,-0.280527 -1.122106,-5.770822 9.056986,-1.041954 z"
       style="fill:#b26a5a;fill-opacity:1;stroke:none;stroke-width:0.26458332px;stroke-linecap:butt;stroke-linejoin:miter;stroke-opacity:1"
       inkscape:export-xdpi="200"
       inkscape:export-ydpi="200" />
    <path
       transform="translate(119.64133,115.79196)"
       clip-path="url(#clipPath3366)"
       inkscape:connector-curvature="0"
       id="path1745"
       d="m -34.464635,17.034955 0.881655,6.892927 -14.907958,12.663749 -1.202256,-18.11397 z"
       style="fill:#b26a5a;fill-opacity:1;stroke:none;stroke-width:0.26458332px;stroke-linecap:butt;stroke-linejoin:miter;stroke-opacity:1"
       inkscape:export-xdpi="200"
       inkscape:export-ydpi="200" />
    <path
       transform="translate(119.64133,115.79196)"
       clip-path="url(#clipPath3362)"
       inkscape:connector-curvature="0"
       id="path1747"
       d="m -26.609905,34.748173 c 0.320603,-0.561051 5.450223,-8.495932 5.450223,-8.495932 l 10.659991,4.889169 z"
       style="fill:#b26a5a;fill-opacity:1;stroke:none;stroke-width:0.26458332px;stroke-linecap:butt;stroke-linejoin:miter;stroke-opacity:1"
       inkscape:export-xdpi="200"
       inkscape:export-ydpi="200" />
    <path
       sodipodi:nodetypes="ccccccc"
       inkscape:connector-curvature="0"
       id="path1749"
       d="m 77.802869,149.33788 10.179089,-9.45774 4.488419,-0.0801 0.154604,7.37216 -5.364375,8.81821 -8.415781,-3.36632 z"
       style="fill:#b26a5a;fill-opacity:1;stroke:none;stroke-width:0.26458332px;stroke-linecap:butt;stroke-linejoin:miter;stroke-opacity:1"
       inkscape:export-xdpi="200"
       inkscape:export-ydpi="200" />
    <path
       inkscape:connector-curvature="0"
       id="path1751"
       d="m 88.427407,156.37114 3.661393,-4.3013 5.258915,-1.14561 -2.249434,6.03021 -6.00285,-0.0107 -0.383308,-0.4118 z"
       style="fill:#a65959;fill-opacity:1;stroke:none;stroke-width:0.21588901px;stroke-linecap:butt;stroke-linejoin:miter;stroke-opacity:1"
       inkscape:export-xdpi="200"
       inkscape:export-ydpi="200" />
    <path
       inkscape:connector-curvature="0"
       id="path1753"
       d="m 73.795354,160.15817 -1.763308,-6.25172 8.015032,0.88165 4.488418,3.60677 -8.095182,2.80526 z"
       style="fill:#a65959;fill-opacity:1;stroke:none;stroke-width:0.26458332px;stroke-linecap:butt;stroke-linejoin:miter;stroke-opacity:1"
       inkscape:export-xdpi="200"
       inkscape:export-ydpi="200" />
    <path
       style="fill:#ea8274;fill-opacity:1;stroke:none;stroke-width:0.1702529px;stroke-linecap:butt;stroke-linejoin:miter;stroke-opacity:1"
       d="m 83.047167,150.60203 0.300968,-3.26765 3.05267,-1.33286 1.76281,2.70871 -3.439628,2.7517 z"
       id="path1888"
       inkscape:connector-curvature="0"
       inkscape:export-xdpi="200"
       inkscape:export-ydpi="200" />
    <path
       style="fill:#ea8274;fill-opacity:1;stroke:none;stroke-width:0.06860627px;stroke-linecap:butt;stroke-linejoin:miter;stroke-opacity:1"
       d="m 88.269171,146.15924 0.12128,-1.31676 1.230125,-0.53709 0.710354,1.09152 -1.386056,1.10884 z"
       id="path1888-2"
       inkscape:connector-curvature="0"
       inkscape:export-xdpi="200"
       inkscape:export-ydpi="200" />
  </g>
</svg>
