<?xml version="1.0" encoding="UTF-8" standalone="no"?>
<!-- Created with Inkscape (http://www.inkscape.org/) -->

<svg
   xmlns:dc="http://purl.org/dc/elements/1.1/"
   xmlns:cc="http://creativecommons.org/ns#"
   xmlns:rdf="http://www.w3.org/1999/02/22-rdf-syntax-ns#"
   xmlns:svg="http://www.w3.org/2000/svg"
   xmlns="http://www.w3.org/2000/svg"
   xmlns:sodipodi="http://sodipodi.sourceforge.net/DTD/sodipodi-0.dtd"
   xmlns:inkscape="http://www.inkscape.org/namespaces/inkscape"
   width="37.224159mm"
   height="38.747021mm"
   viewBox="0 0 37.224159 38.747021"
   version="1.1"
   id="svg7928"
   inkscape:version="0.92.4 (5da689c313, 2019-01-14)"
   sodipodi:docname="gold_m.svg">
  <defs
     id="defs7922">
    <clipPath
       clipPathUnits="userSpaceOnUse"
       id="clipPath3362">
      <path
         inkscape:connector-curvature="0"
         id="path3364"
         d="m -50.574848,41.961702 3.446463,-19.556676 14.988109,-4.969319 9.377587,2.64496 1.202255,5.850973 5.20977,6.892928 c 0,0 -5.370071,16.591113 -5.690672,16.671264 -0.320601,0.08015 -17.072018,3.686916 -17.072018,3.686916 l -10.018787,-8.816536 z"
         style="fill:#49405d;fill-opacity:1;stroke:#3d7454;stroke-width:3;stroke-linecap:butt;stroke-linejoin:round;stroke-miterlimit:4;stroke-dasharray:none;stroke-opacity:1;paint-order:stroke fill markers" />
    </clipPath>
    <clipPath
       clipPathUnits="userSpaceOnUse"
       id="clipPath3366">
      <path
         inkscape:connector-curvature="0"
         id="path3368"
         d="m -50.574848,41.961702 3.446463,-19.556676 14.988109,-4.969319 9.377587,2.64496 1.202255,5.850973 5.20977,6.892928 c 0,0 -5.370071,16.591113 -5.690672,16.671264 -0.320601,0.08015 -17.072018,3.686916 -17.072018,3.686916 l -10.018787,-8.816536 z"
         style="fill:#49405d;fill-opacity:1;stroke:#3d7454;stroke-width:3;stroke-linecap:butt;stroke-linejoin:round;stroke-miterlimit:4;stroke-dasharray:none;stroke-opacity:1;paint-order:stroke fill markers" />
    </clipPath>
    <clipPath
       clipPathUnits="userSpaceOnUse"
       id="clipPath3370">
      <path
         inkscape:connector-curvature="0"
         id="path3372"
         d="m -50.574848,41.961702 3.446463,-19.556676 14.988109,-4.969319 9.377587,2.64496 1.202255,5.850973 5.20977,6.892928 c 0,0 -5.370071,16.591113 -5.690672,16.671264 -0.320601,0.08015 -17.072018,3.686916 -17.072018,3.686916 l -10.018787,-8.816536 z"
         style="fill:#49405d;fill-opacity:1;stroke:#3d7454;stroke-width:3;stroke-linecap:butt;stroke-linejoin:round;stroke-miterlimit:4;stroke-dasharray:none;stroke-opacity:1;paint-order:stroke fill markers" />
    </clipPath>
    <clipPath
       clipPathUnits="userSpaceOnUse"
       id="clipPath3350">
      <path
         inkscape:connector-curvature="0"
         id="path3352"
         d="m -50.574848,41.961702 3.446463,-19.556676 14.988109,-4.969319 9.377587,2.64496 1.202255,5.850973 5.20977,6.892928 c 0,0 -5.370071,16.591113 -5.690672,16.671264 -0.320601,0.08015 -17.072018,3.686916 -17.072018,3.686916 l -10.018787,-8.816536 z"
         style="fill:#49405d;fill-opacity:1;stroke:#3d7454;stroke-width:3;stroke-linecap:butt;stroke-linejoin:round;stroke-miterlimit:4;stroke-dasharray:none;stroke-opacity:1;paint-order:stroke fill markers" />
    </clipPath>
  </defs>
  <sodipodi:namedview
     id="base"
     pagecolor="#ffffff"
     bordercolor="#666666"
     borderopacity="1.0"
     inkscape:pageopacity="0.0"
     inkscape:pageshadow="2"
     inkscape:zoom="0.35"
     inkscape:cx="-379.65513"
     inkscape:cy="73.222731"
     inkscape:document-units="mm"
     inkscape:current-layer="layer1"
     showgrid="false"
     fit-margin-top="0"
     fit-margin-left="0"
     fit-margin-right="0"
     fit-margin-bottom="0"
     inkscape:window-width="1920"
     inkscape:window-height="1027"
     inkscape:window-x="-8"
     inkscape:window-y="-8"
     inkscape:window-maximized="1" />
  <metadata
     id="metadata7925">
    <rdf:RDF>
      <cc:Work
         rdf:about="">
        <dc:format>image/svg+xml</dc:format>
        <dc:type
           rdf:resource="http://purl.org/dc/dcmitype/StillImage" />
        <dc:title></dc:title>
      </cc:Work>
    </rdf:RDF>
  </metadata>
  <g
     inkscape:label="Layer 1"
     inkscape:groupmode="layer"
     id="layer1"
     transform="translate(-83.441492,-129.45983)">
    <path
       inkscape:connector-curvature="0"
       id="path1990"
       d="m 84.941485,155.48581 3.44646,-19.55668 14.988115,-4.96931 9.37759,2.64496 1.20225,5.85097 5.20977,6.89293 c 0,0 -5.37007,16.5911 -5.69068,16.67125 -0.32059,0.0801 -17.072014,3.68693 -17.072014,3.68693 l -10.018781,-8.81654 z"
       style="fill:#624b1f;fill-opacity:1;stroke:#3d7454;stroke-width:3;stroke-linecap:butt;stroke-linejoin:round;stroke-miterlimit:4;stroke-dasharray:none;stroke-opacity:1;paint-order:stroke fill markers"
       inkscape:export-xdpi="200"
       inkscape:export-ydpi="200" />
    <path
       transform="translate(135.51633,113.5241)"
       clip-path="url(#clipPath3350)"
       inkscape:connector-curvature="0"
       id="path1992"
       d="m -48.490938,36.591631 5.474665,-16.816827 12.131631,-4.022251 7.590377,2.140875 0.973126,4.735878 4.216878,5.579253 c 0,0 -4.346627,13.429131 -4.606127,13.494005 -0.2595,0.06488 -13.818382,2.984253 -13.818382,2.984253 L -47.609287,38.11449 Z"
       style="fill:#7d681b;fill-opacity:1;stroke:none;stroke-width:2.42825103;stroke-linecap:butt;stroke-linejoin:round;stroke-miterlimit:4;stroke-dasharray:none;stroke-opacity:1;paint-order:stroke fill markers"
       sodipodi:nodetypes="cccccccccc"
       inkscape:export-xdpi="200"
       inkscape:export-ydpi="200" />
    <path
       transform="translate(135.51633,113.5241)"
       sodipodi:nodetypes="cccccc"
       clip-path="url(#clipPath3370)"
       inkscape:connector-curvature="0"
       id="path1994"
       d="m -22.361937,19.840216 -5.450221,3.326239 -3.125862,-0.280527 -1.122106,-5.770822 9.056986,-1.041954 z"
       style="fill:#d3b132;fill-opacity:1;stroke:none;stroke-width:0.26458332px;stroke-linecap:butt;stroke-linejoin:miter;stroke-opacity:1"
       inkscape:export-xdpi="200"
       inkscape:export-ydpi="200" />
    <path
       transform="translate(135.51633,113.5241)"
       clip-path="url(#clipPath3366)"
       inkscape:connector-curvature="0"
       id="path1996"
       d="m -34.464635,17.034955 0.881655,6.892927 -14.907958,12.663749 -1.202256,-18.11397 z"
       style="fill:#d3b132;fill-opacity:1;stroke:none;stroke-width:0.26458332px;stroke-linecap:butt;stroke-linejoin:miter;stroke-opacity:1"
       inkscape:export-xdpi="200"
       inkscape:export-ydpi="200" />
    <path
       transform="translate(135.51633,113.5241)"
       clip-path="url(#clipPath3362)"
       inkscape:connector-curvature="0"
       id="path1998"
       d="m -26.609905,34.748173 c 0.320603,-0.561051 5.450223,-8.495932 5.450223,-8.495932 l 10.659991,4.889169 z"
       style="fill:#d3b132;fill-opacity:1;stroke:none;stroke-width:0.26458332px;stroke-linecap:butt;stroke-linejoin:miter;stroke-opacity:1"
       inkscape:export-xdpi="200"
       inkscape:export-ydpi="200" />
    <path
       sodipodi:nodetypes="ccccccc"
       inkscape:connector-curvature="0"
       id="path2000"
       d="m 93.677866,147.07003 10.179094,-9.45774 4.48842,-0.0801 0.1546,7.37216 -5.36437,8.81821 -8.415784,-3.36632 z"
       style="fill:#d3b132;fill-opacity:1;stroke:none;stroke-width:0.26458332px;stroke-linecap:butt;stroke-linejoin:miter;stroke-opacity:1"
       inkscape:export-xdpi="200"
       inkscape:export-ydpi="200" />
    <path
       inkscape:connector-curvature="0"
       id="path2002"
       d="m 104.30241,154.10329 3.66139,-4.3013 5.25891,-1.14561 -2.24942,6.03021 -6.00286,-0.0107 -0.3833,-0.4118 z"
       style="fill:#d3b132;fill-opacity:1;stroke:none;stroke-width:0.21588901px;stroke-linecap:butt;stroke-linejoin:miter;stroke-opacity:1"
       inkscape:export-xdpi="200"
       inkscape:export-ydpi="200" />
    <path
       inkscape:connector-curvature="0"
       id="path2004"
       d="m 89.670355,157.89032 -1.76331,-6.25172 8.015031,0.88165 4.488424,3.60677 -8.095185,2.80526 z"
       style="fill:#d3b132;fill-opacity:1;stroke:none;stroke-width:0.26458332px;stroke-linecap:butt;stroke-linejoin:miter;stroke-opacity:1"
       inkscape:export-xdpi="200"
       inkscape:export-ydpi="200" />
    <path
       style="fill:#f5eda0;fill-opacity:1;stroke:none;stroke-width:0.1702529px;stroke-linecap:butt;stroke-linejoin:miter;stroke-opacity:1"
       d="m 98.922166,148.33418 0.30097,-3.26765 3.052674,-1.33286 1.76281,2.70871 -3.43963,2.7517 z"
       id="path2006"
       inkscape:connector-curvature="0"
       inkscape:export-xdpi="200"
       inkscape:export-ydpi="200" />
    <path
       style="fill:#f5eda0;fill-opacity:1;stroke:none;stroke-width:0.06860627px;stroke-linecap:butt;stroke-linejoin:miter;stroke-opacity:1"
       d="m 104.14417,143.89139 0.12128,-1.31676 1.23013,-0.53709 0.71035,1.09152 -1.38605,1.10884 z"
       id="path2008"
       inkscape:connector-curvature="0"
       inkscape:export-xdpi="200"
       inkscape:export-ydpi="200" />
  </g>
</svg>
