<?xml version="1.0" encoding="UTF-8" standalone="no"?>
<!-- Created with Inkscape (http://www.inkscape.org/) -->

<svg
   xmlns:dc="http://purl.org/dc/elements/1.1/"
   xmlns:cc="http://creativecommons.org/ns#"
   xmlns:rdf="http://www.w3.org/1999/02/22-rdf-syntax-ns#"
   xmlns:svg="http://www.w3.org/2000/svg"
   xmlns="http://www.w3.org/2000/svg"
   xmlns:sodipodi="http://sodipodi.sourceforge.net/DTD/sodipodi-0.dtd"
   xmlns:inkscape="http://www.inkscape.org/namespaces/inkscape"
   width="51.711292mm"
   height="45.665375mm"
   viewBox="0 0 51.711292 45.665375"
   version="1.1"
   id="svg888"
   inkscape:version="0.92.4 (5da689c313, 2019-01-14)"
   sodipodi:docname="tree_s1.svg">
  <defs
     id="defs882" />
  <sodipodi:namedview
     id="base"
     pagecolor="#ffffff"
     bordercolor="#666666"
     borderopacity="1.0"
     inkscape:pageopacity="0.0"
     inkscape:pageshadow="2"
     inkscape:zoom="0.35"
     inkscape:cx="-440.84931"
     inkscape:cy="-42.274676"
     inkscape:document-units="mm"
     inkscape:current-layer="layer1"
     showgrid="false"
     fit-margin-top="0"
     fit-margin-left="0"
     fit-margin-right="0"
     fit-margin-bottom="0"
     inkscape:window-width="1920"
     inkscape:window-height="1027"
     inkscape:window-x="-8"
     inkscape:window-y="-8"
     inkscape:window-maximized="1" />
  <metadata
     id="metadata885">
    <rdf:RDF>
      <cc:Work
         rdf:about="">
        <dc:format>image/svg+xml</dc:format>
        <dc:type
           rdf:resource="http://purl.org/dc/dcmitype/StillImage" />
        <dc:title></dc:title>
      </cc:Work>
    </rdf:RDF>
  </metadata>
  <g
     inkscape:label="Layer 1"
     inkscape:groupmode="layer"
     id="layer1"
     transform="translate(-99.632453,-91.982785)">
    <g
       transform="translate(302.80363,-316.54258)"
       id="g2166"
       inkscape:export-xdpi="200"
       inkscape:export-ydpi="200">
      <path
         sodipodi:nodetypes="ccccccccccccccccccc"
         inkscape:connector-curvature="0"
         id="ellipse1844-1-2-8-6-3"
         d="m -178.62714,410.38744 c -4.64613,0.003 -8.93081,1.79442 -11.21368,4.69063 -7.99405,1.72614 -15.45297,13.66174 -9.04868,15.6948 -0.82397,0.90696 -1.26368,1.96518 -1.2661,3.04701 0.001,2.46704 2.25546,4.64362 5.5532,5.36161 -0.6544,0.76636 -1.04606,1.64968 -1.14629,2.58519 -0.3467,3.46556 3.29756,6.80158 8.13964,7.45118 0.98209,0.1293 1.96843,0.13954 2.91787,0.0303 1.52732,1.55216 3.82332,2.63148 6.31439,2.96832 4.84202,0.64961 9.04829,-1.6331 9.39502,-5.0986 0.0242,-0.27609 0.0231,-0.55511 -0.003,-0.83528 3.99432,-0.15627 7.01137,-2.30006 7.30571,-5.19109 0.0158,-0.18818 0.0197,-0.37774 0.0119,-0.56812 5.01521,-1.35123 8.33831,-4.78311 8.34529,-8.61848 -0.006,-1.92885 -0.85626,-3.80788 -2.43206,-5.37265 -1.18024,-7.74913 -7.92112,-13.0478 -11.65478,-13.12893 -0.5366,0.004 -1.07235,0.0318 -1.6041,0.0835 -2.44033,-1.96741 -5.93856,-3.09517 -9.61436,-3.09948 z"
         style="opacity:1;fill:#4e7347;fill-opacity:1;stroke:#225555;stroke-width:3.72397017;stroke-linecap:round;stroke-linejoin:round;stroke-miterlimit:4;stroke-dasharray:none;stroke-opacity:1;paint-order:stroke fill markers" />
      <path
         sodipodi:nodetypes="ccccccccccccc"
         inkscape:connector-curvature="0"
         id="ellipse1844-1-2-8-6-3-0"
         d="m -178.54472,415.81819 c -2.78085,0.008 -5.7308,0.94429 -7.54159,3.15462 -3.82779,1.00866 -6.94445,4.31111 -7.80108,8.15284 2.49143,3.05039 1.24753,8.65057 4.39037,11.96145 1.4517,2.22979 4.31917,3.13421 6.87403,2.8663 2.6042,2.51762 7.3824,2.97773 9.93742,0.14778 0.50313,-1.28924 0.82721,-2.86018 2.62047,-2.44065 1.67012,-0.48312 2.71788,-2.09754 3.23842,-3.66409 2.70177,-0.72016 5.48595,-3.02927 5.2815,-6.06483 -0.35063,-1.49583 -1.32138,-2.81535 -1.7893,-4.30217 -0.79001,-2.08215 -1.75487,-4.15843 -3.46474,-5.65425 -1.38649,-1.3413 -3.29784,-2.36884 -5.28051,-2.07247 -1.81513,-1.44481 -4.17209,-2.07441 -6.46499,-2.08453 z"
         style="opacity:1;fill:#619661;fill-opacity:1;stroke:none;stroke-width:2.50449944;stroke-linecap:round;stroke-linejoin:round;stroke-miterlimit:4;stroke-dasharray:none;stroke-opacity:1;paint-order:stroke fill markers" />
      <path
         sodipodi:nodetypes="cccccccccc"
         inkscape:connector-curvature="0"
         id="ellipse1844-1-2-8-6-3-0-2"
         d="m -178.34528,419.57 c -1.54327,-0.0159 -3.15981,0.53878 -4.17183,1.74506 -2.11749,0.56334 -3.83813,2.37455 -4.31537,4.50996 1.1117,2.92501 2.43323,7.846 4.78894,8.06407 0.99726,0.10649 1.95101,0.46091 2.80484,0.97974 1.35721,0.61193 3.09742,0.32589 4.13456,-0.75976 0.59677,-0.43267 4.13289,-3.83789 4.41643,-3.92611 1.41293,-0.56851 2.21977,-2.49216 1.34965,-3.81918 -0.81804,-1.82969 -1.44944,-3.9799 -3.24954,-5.09953 -1.7954,-0.51539 -4.13125,-1.80683 -5.75768,-1.69425 z"
         style="opacity:1;fill:#65b66d;fill-opacity:1;stroke:none;stroke-width:1.38542914;stroke-linecap:round;stroke-linejoin:round;stroke-miterlimit:4;stroke-dasharray:none;stroke-opacity:1;paint-order:stroke fill markers" />
      <ellipse
         inkscape:export-ydpi="200"
         inkscape:export-xdpi="200"
         style="opacity:1;fill:#619661;fill-opacity:1;stroke:none;stroke-width:0.2143674;stroke-linecap:round;stroke-linejoin:round;stroke-miterlimit:4;stroke-dasharray:none;stroke-opacity:1;paint-order:stroke fill markers"
         id="ellipse1844-6-0"
         cx="-168.27768"
         cy="441.2966"
         rx="4.0431442"
         ry="2.8937435" />
      <ellipse
         inkscape:export-ydpi="200"
         inkscape:export-xdpi="200"
         style="opacity:1;fill:#619661;fill-opacity:1;stroke:none;stroke-width:0.11681119;stroke-linecap:round;stroke-linejoin:round;stroke-miterlimit:4;stroke-dasharray:none;stroke-opacity:1;paint-order:stroke fill markers"
         id="ellipse1844-6-0-2"
         cx="-194.9747"
         cy="433.58981"
         rx="2.2031543"
         ry="1.576833" />
      <ellipse
         inkscape:export-ydpi="200"
         inkscape:export-xdpi="200"
         style="opacity:1;fill:#619661;fill-opacity:1;stroke:none;stroke-width:0.11681119;stroke-linecap:round;stroke-linejoin:round;stroke-miterlimit:4;stroke-dasharray:none;stroke-opacity:1;paint-order:stroke fill markers"
         id="ellipse1844-6-0-2-7"
         cx="-168.24615"
         cy="418.74127"
         rx="2.2031543"
         ry="1.576833" />
    </g>
  </g>
</svg>
