<?xml version="1.0" encoding="UTF-8" standalone="no"?>
<!-- Created with Inkscape (http://www.inkscape.org/) -->

<svg
   xmlns:dc="http://purl.org/dc/elements/1.1/"
   xmlns:cc="http://creativecommons.org/ns#"
   xmlns:rdf="http://www.w3.org/1999/02/22-rdf-syntax-ns#"
   xmlns:svg="http://www.w3.org/2000/svg"
   xmlns="http://www.w3.org/2000/svg"
   xmlns:sodipodi="http://sodipodi.sourceforge.net/DTD/sodipodi-0.dtd"
   xmlns:inkscape="http://www.inkscape.org/namespaces/inkscape"
   width="112.42256mm"
   height="98.635544mm"
   viewBox="0 0 112.42256 98.635544"
   version="1.1"
   id="svg3220"
   inkscape:version="0.92.4 (5da689c313, 2019-01-14)"
   sodipodi:docname="tree_l1.svg">
  <defs
     id="defs3214" />
  <sodipodi:namedview
     id="base"
     pagecolor="#ffffff"
     bordercolor="#666666"
     borderopacity="1.0"
     inkscape:pageopacity="0.0"
     inkscape:pageshadow="2"
     inkscape:zoom="0.35"
     inkscape:cx="-314.69076"
     inkscape:cy="174.9693"
     inkscape:document-units="mm"
     inkscape:current-layer="layer1"
     showgrid="false"
     fit-margin-top="0"
     fit-margin-left="0"
     fit-margin-right="0"
     fit-margin-bottom="0"
     inkscape:window-width="1920"
     inkscape:window-height="1027"
     inkscape:window-x="-8"
     inkscape:window-y="-8"
     inkscape:window-maximized="1" />
  <metadata
     id="metadata3217">
    <rdf:RDF>
      <cc:Work
         rdf:about="">
        <dc:format>image/svg+xml</dc:format>
        <dc:type
           rdf:resource="http://purl.org/dc/dcmitype/StillImage" />
        <dc:title></dc:title>
      </cc:Work>
    </rdf:RDF>
  </metadata>
  <g
     inkscape:label="Layer 1"
     inkscape:groupmode="layer"
     id="layer1"
     transform="translate(-66.253001,-96.491755)">
    <g
       transform="translate(118.88975,-256.96231)"
       id="g2183"
       inkscape:export-xdpi="200"
       inkscape:export-ydpi="200">
      <path
         inkscape:export-ydpi="200"
         inkscape:export-xdpi="200"
         inkscape:connector-curvature="0"
         id="ellipse1844-1-2-8-6-5"
         d="m -1.5315972,355.31605 a 12.438968,11.657164 0 0 0 -10.8250348,5.92974 12.438968,11.657164 0 0 0 -12.296172,10.70113 11.892316,8.5115215 0 0 0 -5.93708,3.71246 11.892316,8.5115215 0 0 0 -11.80442,8.5094 11.892316,8.5115215 0 0 0 8.25231,8.08212 8.8259523,6.3168749 0 0 0 -6.34242,5.66048 8.8259523,6.3168749 0 0 0 -1.52957,1.41306 8.8259523,6.3168749 0 0 0 -8.76078,6.31491 8.8259523,6.3168749 0 0 0 6.74122,6.13063 8.8259523,6.3168749 0 0 0 -0.0858,0.82906 8.8259523,6.3168749 0 0 0 6.10933,6.00153 17.147333,12.272621 0 0 0 -2.08452,5.83376 17.147333,12.272621 0 0 0 13.09732,11.91054 17.147333,12.272621 0 0 0 -0.1675,1.6105 17.147333,12.272621 0 0 0 17.147785,12.27225 17.147333,12.272621 0 0 0 12.7593408,-4.09352 17.147333,12.272621 0 0 0 5.637244,0.69653 17.147333,12.272621 0 0 0 13.5360582,-4.74793 7.7408395,5.5402431 0 0 0 7.222245,3.56338 7.7408395,5.5402431 0 0 0 5.760039,-1.84798 7.7408395,5.5402431 0 0 0 2.545315,0.31478 7.7408395,5.5402431 0 0 0 7.740233,-5.5404 7.7408395,5.5402431 0 0 0 -1.461023,-3.22784 7.7408395,5.5402431 0 0 0 0.512065,-1.03272 17.147333,12.272621 0 0 0 13.689242,-12.01824 17.147333,12.272621 0 0 0 -3.236801,-7.14947 17.147333,12.272621 0 0 0 1.6375,-5.20078 17.147333,12.272621 0 0 0 -3.704723,-7.59751 7.7408395,5.5402425 0 0 0 1.862782,-3.59582 7.7408395,5.5402425 0 0 0 -1.461014,-3.22717 7.7408395,5.5402425 0 0 0 0.739167,-2.34773 7.7408395,5.5402425 0 0 0 -7.741468,-5.5404 7.7408395,5.5402425 0 0 0 -0.963279,0.0505 7.7408395,5.5402425 0 0 0 -1.726296,-1.03546 10.670902,7.637336 0 0 0 0.531132,-2.34843 10.670902,7.637336 0 0 0 -2.014797,-4.44901 10.670902,7.637336 0 0 0 1.019319,-3.23615 10.670902,7.637336 0 0 0 -10.67124,-7.63755 10.670902,7.637336 0 0 0 -1.328678,0.0697 10.670902,7.637336 0 0 0 -7.962597,-2.56726 10.670902,7.637336 0 0 0 -1.999296,0.14014 12.438968,11.657164 0 0 0 -11.6041172,-7.49328 12.438968,11.657164 0 0 0 -1.548641,0.10573 12.438968,11.657164 0 0 0 -9.281749,-3.91749 z"
         style="opacity:1;fill:#4e7347;fill-opacity:1;stroke:#225555;stroke-width:3.72397041;stroke-linecap:round;stroke-linejoin:round;stroke-miterlimit:4;stroke-dasharray:none;stroke-opacity:1;paint-order:stroke fill markers" />
      <path
         inkscape:export-ydpi="200"
         inkscape:export-xdpi="200"
         transform="matrix(1.1535083,0,0,1.3358238,-276.71605,175.74715)"
         d="m 238.69727,138.55273 c -1.88387,0.003 -3.56148,0.97496 -4.09766,1.74415 a 4.8286188,4.8286188 0 0 1 -3.92969,2.0664 c -2.64242,0.0176 -4.30488,1.7736 -4.38281,2.54102 a 4.8286188,4.8286188 0 0 1 -3.64649,4.19922 c -1.13915,0.28118 -1.88859,0.81813 -2.01757,0.95898 a 4.8286188,4.8286188 0 0 1 -3.53907,1.56836 c -1.15913,0.005 -2.17779,0.28719 -2.95117,0.59766 0.40298,0.18892 0.62191,0.38571 1.22657,0.50586 a 4.8286188,4.8286188 0 0 1 -0.0879,9.48828 c -0.53618,0.0964 -0.80601,0.25639 -0.97656,0.35156 a 4.8286188,4.8286188 0 0 1 -2.11914,2.67773 c -0.10086,0.0604 -0.11761,0.0908 -0.0664,0.0352 a 4.8286188,4.8286188 0 0 1 -1.75977,1.20508 4.8286188,4.8286188 0 0 1 1.49609,2.94336 c 0.19477,0.0939 0.26153,0.16639 0.64063,0.24218 a 4.8286188,4.8286188 0 0 1 2.67578,7.92579 c -0.37343,0.42414 -0.3377,0.54265 -0.33594,0.5625 -3.6e-4,0.0257 -0.0212,0.36502 0.87695,1.07031 0.9098,0.71446 2.67752,1.49698 4.75196,1.80859 a 4.8286188,4.8286188 0 0 1 3.99414,5.82813 c 0.002,0.0429 0.0686,0.60664 1.4414,1.45507 1.40183,0.86636 3.92893,1.58988 6.49024,1.58985 2.73777,-0.003 5.41951,-0.85253 6.75391,-1.77539 a 4.8286188,4.8286188 0 0 1 3.77343,-0.7461 c 0.99326,0.21652 2.08334,0.33473 3.17383,0.3379 2.96604,-0.003 5.84518,-1.02947 7.06641,-2.00196 a 4.8286188,4.8286188 0 0 1 7.11523,1.23828 c -0.54103,-0.87537 0.15588,-0.001 1.26953,0.002 0.77604,-0.002 1.5132,-0.31278 1.54102,-0.33204 a 4.8286188,4.8286188 0 0 1 3.77734,-0.74609 c 0.22918,0.05 0.50563,0.0747 0.78125,0.082 a 4.8286188,4.8286188 0 0 1 0.78516,-3.52734 4.8286188,4.8286188 0 0 1 3.74805,-2.72461 c 2.15824,-0.27477 4.03725,-1.06033 5.01367,-1.80078 0.96919,-0.73498 0.95136,-1.10778 0.95117,-1.13086 5.1e-4,-0.0217 0.0318,-0.29566 -0.7168,-0.9375 a 4.8286188,4.8286188 0 0 1 -0.69531,-6.5957 c 0.24694,-0.32346 0.22092,-0.39542 0.21875,-0.41407 3e-4,-0.0265 0.0175,-0.36963 -0.89062,-1.07812 a 4.8286188,4.8286188 0 0 1 -1.16016,-6.29297 4.8286188,4.8286188 0 0 1 -0.39258,-2.0625 c -0.16982,-0.0255 -0.2027,-0.0796 -0.38476,-0.0801 -0.10503,0.002 -0.21035,0.005 -0.3125,0.0137 A 4.8286188,4.8286188 0 0 1 270.63086,158.5 c -0.009,-0.006 -0.0953,-0.0618 -0.24609,-0.11914 a 4.8286188,4.8286188 0 0 1 -2.96875,-5.65039 4.8286188,4.8286188 0 0 1 -0.98829,-4.78516 c -0.61189,-0.27975 -1.51028,-0.6061 -2.61132,-0.60742 -0.19821,0.002 -0.39545,0.009 -0.58985,0.0254 a 4.8286188,4.8286188 0 0 1 -3.16601,-0.84961 c -0.42909,-0.29903 -1.77741,-0.78014 -3.16993,-0.7832 -0.30578,0.002 -0.61058,0.0191 -0.90429,0.0547 a 4.8286188,4.8286188 0 0 1 -4.94727,-2.73047 c -0.36862,-0.78023 -2.12571,-2.04534 -4.27148,-2.05078 -0.2107,0.003 -0.42154,0.0142 -0.62891,0.0371 a 4.8286188,4.8286188 0 0 1 -3.78125,-1.23047 c -0.72128,-0.6576 -2.15771,-1.25397 -3.66015,-1.25782 z"
         id="path1465"
         style="opacity:1;fill:#619661;fill-opacity:1;stroke:none;stroke-width:2.57659054;stroke-linecap:round;stroke-linejoin:round;stroke-miterlimit:4;stroke-dasharray:none;stroke-opacity:1;paint-order:stroke fill markers"
         inkscape:original="M 238.69922 133.72266 A 9.2616377 7.4949347 0 0 0 230.63867 137.53516 A 9.2616377 7.4949347 0 0 0 221.48438 144.41602 A 8.8546187 5.4724546 0 0 0 217.0625 146.80273 A 8.8546187 5.4724546 0 0 0 208.27344 152.27344 A 8.8546187 5.4724546 0 0 0 214.41797 157.4707 A 6.571507 4.061414 0 0 0 209.69531 161.10938 A 6.571507 4.061414 0 0 0 208.55664 162.01758 A 6.571507 4.061414 0 0 0 202.03516 166.07812 A 6.571507 4.061414 0 0 0 207.05273 170.01953 A 6.571507 4.061414 0 0 0 206.99023 170.55273 A 6.571507 4.061414 0 0 0 211.53906 174.41211 A 12.767328 7.890641 0 0 0 209.98633 178.16211 A 12.767328 7.890641 0 0 0 219.73828 185.82031 A 12.767328 7.890641 0 0 0 219.61328 186.85547 A 12.767328 7.890641 0 0 0 232.38086 194.74609 A 12.767328 7.890641 0 0 0 241.88086 192.11328 A 12.767328 7.890641 0 0 0 246.07812 192.5625 A 12.767328 7.890641 0 0 0 256.15625 189.50977 A 5.7635687 3.5620809 0 0 0 261.53516 191.80078 A 5.7635687 3.5620809 0 0 0 265.82227 190.61133 A 5.7635687 3.5620809 0 0 0 267.71875 190.81445 A 5.7635687 3.5620809 0 0 0 273.48242 187.25195 A 5.7635687 3.5620809 0 0 0 272.39453 185.17773 A 5.7635687 3.5620809 0 0 0 272.77539 184.51367 A 12.767328 7.8906407 0 0 0 282.9668 176.78516 A 12.767328 7.8906407 0 0 0 280.55664 172.18945 A 12.767328 7.8906407 0 0 0 281.77734 168.8457 A 12.767328 7.8906407 0 0 0 279.01758 163.96094 A 5.7635686 3.5620806 0 0 0 280.4043 161.64844 A 5.7635686 3.5620806 0 0 0 279.31836 159.57422 A 5.7635686 3.5620806 0 0 0 279.86719 158.06445 A 5.7635686 3.5620806 0 0 0 274.10352 154.50195 A 5.7635686 3.5620806 0 0 0 273.38672 154.53516 A 5.7635686 3.5620806 0 0 0 272.10156 153.86914 A 7.9451957 4.9104001 0 0 0 272.49609 152.35938 A 7.9451957 4.9104001 0 0 0 270.99609 149.49805 A 7.9451957 4.9104001 0 0 0 271.75586 147.41797 A 7.9451957 4.9104001 0 0 0 263.81055 142.50781 A 7.9451957 4.9104001 0 0 0 262.82031 142.55273 A 7.9451957 4.9104001 0 0 0 256.89258 140.90039 A 7.9451957 4.9104001 0 0 0 255.4043 140.99219 A 9.2616377 7.4949347 0 0 0 246.76367 136.17383 A 9.2616377 7.4949347 0 0 0 245.60938 136.24219 A 9.2616377 7.4949347 0 0 0 238.69922 133.72266 z "
         inkscape:radius="-4.828136"
         sodipodi:type="inkscape:offset" />
      <path
         inkscape:export-ydpi="200"
         inkscape:export-xdpi="200"
         transform="matrix(1.1535083,0,0,1.3358238,-273.94243,180.98627)"
         d="m 235.14648,140.94922 a 16.817451,16.817451 0 0 1 -6.01171,2.79687 16.817451,16.817451 0 0 1 -6.05079,6.13672 16.817451,16.817451 0 0 1 -5.13671,12.85547 16.817451,16.817451 0 0 1 1.6914,5.67578 16.817451,16.817451 0 0 1 8.33594,8.66406 c 0.81422,-0.16379 1.40769,-0.40394 0.75,0.0508 a 16.817451,16.817451 0 0 1 13.13867,-2.59961 c 0.34189,0.0744 0.82895,0.13141 1.31836,0.13476 1.34959,-0.008 2.49502,-0.88214 1.25,0.10938 a 16.817451,16.817451 0 0 1 16.29102,-2.60547 16.817451,16.817451 0 0 1 5.79296,-4.97461 16.817451,16.817451 0 0 1 0.10547,-1.26563 16.817451,16.817451 0 0 1 -1.66406,-5.01757 16.817451,16.817451 0 0 1 -8.07812,-11.88868 16.817451,16.817451 0 0 1 -1.86329,-0.8164 16.817451,16.817451 0 0 1 -13.46874,-5.53125 16.817451,16.817451 0 0 1 -6.4004,-1.72461 z m 28.91407,9.0625 a 16.817451,16.817451 0 0 1 -0.24024,0.008 h 0.0918 c 0.0475,-2.6e-4 0.0942,-0.003 0.14844,-0.008 z m 12.3457,13.94922 a 16.817451,16.817451 0 0 1 -0.61523,0.0215 c 0.004,0 0.01,0.002 0.0137,0.002 l 0.13476,-0.002 c 0.15348,-0.001 0.3072,-0.008 0.4668,-0.0215 z m -10.57227,11.20312 a 16.817451,16.817451 0 0 1 1.28125,1.21289 c -0.45071,-0.49246 -0.87003,-0.89575 -1.28125,-1.21289 z"
         id="ellipse1844-1-2-8-6-5-4"
         style="opacity:1;fill:#65b66d;fill-opacity:1;stroke:none;stroke-width:3;stroke-linecap:round;stroke-linejoin:round;stroke-miterlimit:4;stroke-dasharray:none;stroke-opacity:1;paint-order:stroke fill markers"
         inkscape:original="M 234.58203 122.97461 A 10.783597 8.726573 0 0 0 225.19727 127.41406 A 10.783597 8.726573 0 0 0 214.53711 135.42383 A 10.309693 6.3717398 0 0 0 209.39062 138.20312 A 10.309693 6.3717398 0 0 0 199.15625 144.57422 A 10.309693 6.3717398 0 0 0 206.31055 150.625 A 7.6513989 4.7288238 0 0 0 200.8125 154.86133 A 7.6513989 4.7288238 0 0 0 199.48633 155.91992 A 7.6513989 4.7288238 0 0 0 191.89258 160.64648 A 7.6513989 4.7288238 0 0 0 197.73633 165.23633 A 7.6513989 4.7288238 0 0 0 197.66211 165.85742 A 7.6513989 4.7288238 0 0 0 202.95703 170.34961 A 14.865375 9.1873054 0 0 0 201.15039 174.7168 A 14.865375 9.1873054 0 0 0 212.50586 183.63281 A 14.865375 9.1873054 0 0 0 212.35938 184.83789 A 14.865375 9.1873054 0 0 0 227.22461 194.02539 A 14.865375 9.1873054 0 0 0 238.28711 190.96094 A 14.865375 9.1873054 0 0 0 243.17383 191.48242 A 14.865375 9.1873054 0 0 0 254.9082 187.92773 A 6.7106927 4.1474356 0 0 0 261.16992 190.5957 A 6.7106927 4.1474356 0 0 0 266.16406 189.21289 A 6.7106927 4.1474356 0 0 0 268.36914 189.44727 A 6.7106927 4.1474356 0 0 0 275.08008 185.30078 A 6.7106927 4.1474356 0 0 0 273.8125 182.88477 A 6.7106927 4.1474356 0 0 0 274.25781 182.11133 A 14.865375 9.1873051 0 0 0 286.125 173.11523 A 14.865375 9.1873051 0 0 0 283.31836 167.76172 A 14.865375 9.1873051 0 0 0 284.73828 163.86914 A 14.865375 9.1873051 0 0 0 281.52734 158.18164 A 6.7106924 4.1474353 0 0 0 283.14062 155.49023 A 6.7106924 4.1474353 0 0 0 281.875 153.07422 A 6.7106924 4.1474353 0 0 0 282.51562 151.31641 A 6.7106924 4.1474353 0 0 0 275.80469 147.16797 A 6.7106924 4.1474353 0 0 0 274.96875 147.20703 A 6.7106924 4.1474353 0 0 0 273.47266 146.43164 A 9.250825 5.7173233 0 0 0 273.93359 144.67383 A 9.250825 5.7173233 0 0 0 272.1875 141.3418 A 9.250825 5.7173233 0 0 0 273.07031 138.91992 A 9.250825 5.7173233 0 0 0 263.81836 133.20312 A 9.250825 5.7173233 0 0 0 262.66797 133.25391 A 9.250825 5.7173233 0 0 0 255.76367 131.33203 A 9.250825 5.7173233 0 0 0 254.03125 131.4375 A 10.783597 8.726573 0 0 0 243.9707 125.82812 A 10.783597 8.726573 0 0 0 242.62891 125.9082 A 10.783597 8.726573 0 0 0 234.58203 122.97461 z "
         inkscape:radius="-16.815769"
         sodipodi:type="inkscape:offset" />
      <ellipse
         inkscape:export-ydpi="200"
         inkscape:export-xdpi="200"
         style="opacity:1;fill:#619661;fill-opacity:1;stroke:none;stroke-width:0.58810246;stroke-linecap:round;stroke-linejoin:round;stroke-miterlimit:4;stroke-dasharray:none;stroke-opacity:1;paint-order:stroke fill markers"
         id="ellipse1844-6-6"
         cx="-28.337425"
         cy="407.92523"
         rx="11.092093"
         ry="7.9387889" />
      <ellipse
         inkscape:export-ydpi="200"
         inkscape:export-xdpi="200"
         style="opacity:1;fill:#619661;fill-opacity:1;stroke:none;stroke-width:0.58810246;stroke-linecap:round;stroke-linejoin:round;stroke-miterlimit:4;stroke-dasharray:none;stroke-opacity:1;paint-order:stroke fill markers"
         id="ellipse1844-6-6-0"
         cx="38.552273"
         cy="419.38147"
         rx="11.092093"
         ry="7.9387889" />
      <ellipse
         inkscape:export-ydpi="200"
         inkscape:export-xdpi="200"
         style="opacity:1;fill:#619661;fill-opacity:1;stroke:none;stroke-width:0.43653086;stroke-linecap:round;stroke-linejoin:round;stroke-miterlimit:4;stroke-dasharray:none;stroke-opacity:1;paint-order:stroke fill markers"
         id="ellipse1844-6-6-1"
         cx="6.9888268"
         cy="435.19681"
         rx="8.2333279"
         ry="5.8927259" />
      <ellipse
         inkscape:export-ydpi="200"
         inkscape:export-xdpi="200"
         style="opacity:1;fill:#65b66d;fill-opacity:1;stroke:none;stroke-width:0.17222127;stroke-linecap:round;stroke-linejoin:round;stroke-miterlimit:4;stroke-dasharray:none;stroke-opacity:1;paint-order:stroke fill markers"
         id="ellipse1844-6-6-1-7"
         cx="-29.795202"
         cy="407.1965"
         rx="3.2482336"
         ry="2.3248134" />
      <ellipse
         inkscape:export-ydpi="200"
         inkscape:export-xdpi="200"
         style="opacity:1;fill:#65b66d;fill-opacity:1;stroke:none;stroke-width:0.27620652;stroke-linecap:round;stroke-linejoin:round;stroke-miterlimit:4;stroke-dasharray:none;stroke-opacity:1;paint-order:stroke fill markers"
         id="ellipse1844-6-6-1-7-0"
         cx="37.975574"
         cy="417.70721"
         rx="5.2094803"
         ry="3.7285089" />
    </g>
  </g>
</svg>
