<?xml version="1.0" encoding="UTF-8" standalone="no"?>
<!-- Created with Inkscape (http://www.inkscape.org/) -->

<svg
   xmlns:dc="http://purl.org/dc/elements/1.1/"
   xmlns:cc="http://creativecommons.org/ns#"
   xmlns:rdf="http://www.w3.org/1999/02/22-rdf-syntax-ns#"
   xmlns:svg="http://www.w3.org/2000/svg"
   xmlns="http://www.w3.org/2000/svg"
   xmlns:sodipodi="http://sodipodi.sourceforge.net/DTD/sodipodi-0.dtd"
   xmlns:inkscape="http://www.inkscape.org/namespaces/inkscape"
   width="73.088188mm"
   height="71.540321mm"
   viewBox="0 0 73.088188 71.540321"
   version="1.1"
   id="svg2055"
   inkscape:version="0.92.4 (5da689c313, 2019-01-14)"
   sodipodi:docname="tree_m1.svg">
  <defs
     id="defs2049" />
  <sodipodi:namedview
     id="base"
     pagecolor="#ffffff"
     bordercolor="#666666"
     borderopacity="1.0"
     inkscape:pageopacity="0.0"
     inkscape:pageshadow="2"
     inkscape:zoom="0.35"
     inkscape:cx="-340.45203"
     inkscape:cy="118.05143"
     inkscape:document-units="mm"
     inkscape:current-layer="layer1"
     showgrid="false"
     fit-margin-top="0"
     fit-margin-left="0"
     fit-margin-right="0"
     fit-margin-bottom="0"
     inkscape:window-width="1920"
     inkscape:window-height="1027"
     inkscape:window-x="-8"
     inkscape:window-y="-8"
     inkscape:window-maximized="1" />
  <metadata
     id="metadata2052">
    <rdf:RDF>
      <cc:Work
         rdf:about="">
        <dc:format>image/svg+xml</dc:format>
        <dc:type
           rdf:resource="http://purl.org/dc/dcmitype/StillImage" />
        <dc:title></dc:title>
      </cc:Work>
    </rdf:RDF>
  </metadata>
  <g
     inkscape:label="Layer 1"
     inkscape:groupmode="layer"
     id="layer1"
     transform="translate(-73.069005,-108.52745)">
    <g
       transform="translate(206.74962,-278.14605)"
       id="g2173"
       inkscape:export-xdpi="200"
       inkscape:export-ydpi="200">
      <path
         inkscape:export-ydpi="200"
         inkscape:export-xdpi="200"
         inkscape:connector-curvature="0"
         id="ellipse1844-1"
         d="m -90.955944,388.53549 a 12.438968,11.657164 0 0 0 -10.825626,5.9297 12.438968,11.657164 0 0 0 -12.29558,10.70114 11.892316,8.5115215 0 0 0 -5.93708,3.71248 11.892316,8.5115215 0 0 0 -11.8044,8.50939 11.892316,8.5115215 0 0 0 8.25228,8.08209 8.8259523,6.3168749 0 0 0 -6.36804,6.05953 8.8259523,6.3168749 0 0 0 6.7412,6.12992 8.8259523,6.3168749 0 0 0 -0.0858,0.82905 8.8259523,6.3168749 0 0 0 8.3274,6.30455 9.8204479,7.0286523 0 0 0 6.39904,3.60755 9.8204479,7.0286523 0 0 0 -0.096,0.92226 9.8204479,7.0286523 0 0 0 9.820606,7.02869 9.8204479,7.0286523 0 0 0 7.30691,-2.34428 9.8204479,7.0286523 0 0 0 3.22903,0.39898 9.8204479,7.0286523 0 0 0 9.82001,-7.02865 9.8204479,7.0286523 0 0 0 -0.29746,-1.6685 9.8204479,7.0286523 0 0 0 3.26599,-1.70921 9.8204479,7.0286523 0 0 0 3.22843,0.39901 9.8204479,7.0286523 0 0 0 9.82062,-7.02871 9.8204479,7.0286523 0 0 0 -1.85385,-4.09489 9.8204479,7.0286523 0 0 0 0.93765,-2.97797 9.8204479,7.0286523 0 0 0 -6.51231,-6.61038 12.438968,11.657164 0 0 0 3.35719,-7.95232 12.438968,11.657164 0 0 0 -2.348,-6.79054 12.438968,11.657164 0 0 0 1.18802,-4.93984 12.438968,11.657164 0 0 0 -12.43985,-11.6572 12.438968,11.657164 0 0 0 -1.54864,0.10573 12.438968,11.657164 0 0 0 -9.28175,-3.91749 z"
         style="opacity:1;fill:#4e7347;fill-opacity:1;stroke:#225555;stroke-width:3.72397041;stroke-linecap:round;stroke-linejoin:round;stroke-miterlimit:4;stroke-dasharray:none;stroke-opacity:1;paint-order:stroke fill markers" />
      <path
         inkscape:export-ydpi="200"
         inkscape:export-xdpi="200"
         clip-path="none"
         transform="matrix(1.2084085,0,0,1.3994012,-269.22189,218.91858)"
         d="m 147.70312,124.38086 c -1.99057,0.003 -3.7233,1.05536 -4.1914,1.72656 a 6.3307908,6.3307908 0 0 1 -5.15039,2.70899 c -2.79394,0.0183 -4.35708,1.85517 -4.4043,2.32031 a 6.3307908,6.3307908 0 0 1 -4.7793,5.50586 c -1.22108,0.30169 -1.96958,0.88137 -1.99414,0.9082 a 6.3307908,6.3307908 0 0 1 -4.64062,2.05664 c -0.35084,0.002 -0.65027,0.0935 -0.98828,0.13477 a 6.3307908,6.3307908 0 0 1 2.41211,10.35937 6.3307908,6.3307908 0 0 1 1.98828,3.45899 c 0.35512,0.11971 0.58622,0.25502 1.16797,0.27539 a 6.3307908,6.3307908 0 0 1 4.64062,2.27344 c -0.28426,-0.34096 0.41568,0.3106 1.63086,0.49414 a 6.3307908,6.3307908 0 0 1 5.32227,5.40429 c 0.49718,0.20248 1.19333,0.47764 2.16015,0.47852 1.28722,-0.002 2.52085,-0.48377 2.73633,-0.63281 a 6.3307908,6.3307908 0 0 1 4.94727,-0.97852 c 0.43591,0.0949 0.94634,0.15246 1.45703,0.1543 0.86536,-7.9e-4 1.40862,-0.23905 1.93359,-0.42774 a 6.3307908,6.3307908 0 0 1 4.61719,-5.84961 c 0.49131,-0.13716 0.83259,-0.32153 0.94141,-0.39648 a 6.3307908,6.3307908 0 0 1 4.9375,-0.97266 c 0.43591,0.0949 0.94634,0.15247 1.45703,0.1543 0.37769,-3.4e-4 0.49806,-0.1272 0.84375,-0.1875 a 6.3307908,6.3307908 0 0 1 -0.18555,-2.81641 6.3307908,6.3307908 0 0 1 -2.72852,-10.95898 c 0.64931,-0.56145 0.71124,-0.9349 0.7129,-1.16211 -0.002,-0.1869 -0.0388,-0.44081 -0.42579,-0.875 a 6.3307908,6.3307908 0 0 1 -0.74218,-7.40039 c 0.14253,-0.24443 0.16223,-0.38655 0.16406,-0.51563 -9.9e-4,-0.23755 -0.073,-0.65015 -0.80469,-1.24218 -0.73446,-0.59428 -2.1551,-1.14165 -3.63281,-1.14453 -0.22307,0.003 -0.44677,0.0151 -0.66602,0.0391 a 6.3307908,6.3307908 0 0 1 -4.95117,-1.61328 c -0.69297,-0.63141 -2.19662,-1.27568 -3.78516,-1.2793 z"
         id="ellipse1844-1-0"
         style="opacity:1;fill:#619661;fill-opacity:1;stroke:none;stroke-width:3;stroke-linecap:round;stroke-linejoin:round;stroke-miterlimit:4;stroke-dasharray:none;stroke-opacity:1;paint-order:stroke fill markers"
         inkscape:original="M 147.70508 118.04883 A 10.783597 8.726573 0 0 0 138.32031 122.48633 A 10.783597 8.726573 0 0 0 127.66016 130.49805 A 10.309693 6.3717398 0 0 0 122.51367 133.27734 A 10.309693 6.3717398 0 0 0 112.28125 139.64844 A 10.309693 6.3717398 0 0 0 119.43359 145.69727 A 7.6513989 4.7288238 0 0 0 113.91406 150.23438 A 7.6513989 4.7288238 0 0 0 119.75781 154.82227 A 7.6513989 4.7288238 0 0 0 119.68359 155.44336 A 7.6513989 4.7288238 0 0 0 126.90234 160.16211 A 8.5135482 5.2616613 0 0 0 132.44922 162.86328 A 8.5135482 5.2616613 0 0 0 132.36719 163.55469 A 8.5135482 5.2616613 0 0 0 140.88086 168.81641 A 8.5135482 5.2616613 0 0 0 147.21484 167.06055 A 8.5135482 5.2616613 0 0 0 150.01367 167.35938 A 8.5135482 5.2616613 0 0 0 158.52734 162.09766 A 8.5135482 5.2616613 0 0 0 158.26953 160.84961 A 8.5135479 5.2616613 0 0 0 161.10156 159.56836 A 8.5135479 5.2616613 0 0 0 163.90039 159.86719 A 8.5135479 5.2616613 0 0 0 172.41406 154.60547 A 8.5135479 5.2616613 0 0 0 170.80664 151.54102 A 8.5135479 5.2616613 0 0 0 171.61914 149.31055 A 8.5135479 5.2616613 0 0 0 165.97461 144.36328 A 10.783597 8.726573 0 0 0 168.88477 138.41016 A 10.783597 8.726573 0 0 0 166.84766 133.32617 A 10.783597 8.726573 0 0 0 167.87891 129.62891 A 10.783597 8.726573 0 0 0 157.09375 120.90234 A 10.783597 8.726573 0 0 0 155.75195 120.98047 A 10.783597 8.726573 0 0 0 147.70508 118.04883 z "
         inkscape:radius="-6.3301578"
         sodipodi:type="inkscape:offset" />
      <path
         inkscape:export-ydpi="200"
         inkscape:export-xdpi="200"
         clip-path="none"
         transform="matrix(1.0643644,0,0,1.2325904,-248.51727,239.4241)"
         d="m 147.05859,128.58008 a 10.653523,10.653523 0 0 1 -8.66797,4.55859 c -0.41786,0.003 -0.42182,0.0398 -0.42968,0.0195 a 10.653523,10.653523 0 0 1 -7.7461,7.68164 c -0.26138,0.0646 -0.36222,0.14239 -0.375,0.1543 a 10.653523,10.653523 0 0 1 -0.61718,0.53906 10.653523,10.653523 0 0 1 0.0332,8.2461 10.653523,10.653523 0 0 1 4.88086,2.57031 10.653523,10.653523 0 0 1 7.70898,5.52148 10.653523,10.653523 0 0 1 6.70313,-1.36718 10.653523,10.653523 0 0 1 6.82812,-5.9043 10.653523,10.653523 0 0 1 1.45508,-0.78516 10.653523,10.653523 0 0 1 0.51953,-11.6914 10.653523,10.653523 0 0 1 -1.01172,-6.51953 10.653523,10.653523 0 0 1 -7.76172,-2.74805 c 0.20412,0.18598 -0.27662,-0.14428 -0.875,-0.15235 -0.75419,0.006 -1.12788,0.57005 -0.64453,-0.12304 z"
         id="ellipse1844-1-0-9"
         style="opacity:1;fill:#65b66d;fill-opacity:1;stroke:none;stroke-width:3;stroke-linecap:round;stroke-linejoin:round;stroke-miterlimit:4;stroke-dasharray:none;stroke-opacity:1;paint-order:stroke fill markers"
         inkscape:original="M 147.70508 118.04883 A 10.783597 8.726573 0 0 0 138.32031 122.48633 A 10.783597 8.726573 0 0 0 127.66016 130.49805 A 10.309693 6.3717398 0 0 0 122.51367 133.27734 A 10.309693 6.3717398 0 0 0 112.28125 139.64844 A 10.309693 6.3717398 0 0 0 119.43359 145.69727 A 7.6513989 4.7288238 0 0 0 113.91406 150.23438 A 7.6513989 4.7288238 0 0 0 119.75781 154.82227 A 7.6513989 4.7288238 0 0 0 119.68359 155.44336 A 7.6513989 4.7288238 0 0 0 126.90234 160.16211 A 8.5135482 5.2616613 0 0 0 132.44922 162.86328 A 8.5135482 5.2616613 0 0 0 132.36719 163.55469 A 8.5135482 5.2616613 0 0 0 140.88086 168.81641 A 8.5135482 5.2616613 0 0 0 147.21484 167.06055 A 8.5135482 5.2616613 0 0 0 150.01367 167.35938 A 8.5135482 5.2616613 0 0 0 158.52734 162.09766 A 8.5135482 5.2616613 0 0 0 158.26953 160.84961 A 8.5135479 5.2616613 0 0 0 161.10156 159.56836 A 8.5135479 5.2616613 0 0 0 163.90039 159.86719 A 8.5135479 5.2616613 0 0 0 172.41406 154.60547 A 8.5135479 5.2616613 0 0 0 170.80664 151.54102 A 8.5135479 5.2616613 0 0 0 171.61914 149.31055 A 8.5135479 5.2616613 0 0 0 165.97461 144.36328 A 10.783597 8.726573 0 0 0 168.88477 138.41016 A 10.783597 8.726573 0 0 0 166.84766 133.32617 A 10.783597 8.726573 0 0 0 167.87891 129.62891 A 10.783597 8.726573 0 0 0 157.09375 120.90234 A 10.783597 8.726573 0 0 0 155.75195 120.98047 A 10.783597 8.726573 0 0 0 147.70508 118.04883 z "
         inkscape:radius="-10.652458"
         sodipodi:type="inkscape:offset" />
      <ellipse
         inkscape:export-ydpi="200"
         inkscape:export-xdpi="200"
         style="opacity:1;fill:#65b66d;fill-opacity:1;stroke:none;stroke-width:0.17222127;stroke-linecap:round;stroke-linejoin:round;stroke-miterlimit:4;stroke-dasharray:none;stroke-opacity:1;paint-order:stroke fill markers"
         id="ellipse1844-6-6-1-7-5"
         cx="-111.125"
         cy="429.66965"
         rx="3.2482338"
         ry="2.3248134" />
      <ellipse
         inkscape:export-ydpi="200"
         inkscape:export-xdpi="200"
         style="opacity:1;fill:#619661;fill-opacity:1;stroke:none;stroke-width:0.26852888;stroke-linecap:round;stroke-linejoin:round;stroke-miterlimit:4;stroke-dasharray:none;stroke-opacity:1;paint-order:stroke fill markers"
         id="ellipse1844-6-6-1-1"
         cx="-71.015373"
         cy="435.71725"
         rx="5.0646734"
         ry="3.6248689" />
    </g>
  </g>
</svg>
